%TF.GenerationSoftware,KiCad,Pcbnew,9.0.7*%
%TF.CreationDate,2026-02-09T16:26:46+02:00*%
%TF.ProjectId,Furnace_Controller,4675726e-6163-4655-9f43-6f6e74726f6c,rev?*%
%TF.SameCoordinates,Original*%
%TF.FileFunction,Soldermask,Top*%
%TF.FilePolarity,Negative*%
%FSLAX46Y46*%
G04 Gerber Fmt 4.6, Leading zero omitted, Abs format (unit mm)*
G04 Created by KiCad (PCBNEW 9.0.7) date 2026-02-09 16:26:46*
%MOMM*%
%LPD*%
G01*
G04 APERTURE LIST*
G04 Aperture macros list*
%AMRoundRect*
0 Rectangle with rounded corners*
0 $1 Rounding radius*
0 $2 $3 $4 $5 $6 $7 $8 $9 X,Y pos of 4 corners*
0 Add a 4 corners polygon primitive as box body*
4,1,4,$2,$3,$4,$5,$6,$7,$8,$9,$2,$3,0*
0 Add four circle primitives for the rounded corners*
1,1,$1+$1,$2,$3*
1,1,$1+$1,$4,$5*
1,1,$1+$1,$6,$7*
1,1,$1+$1,$8,$9*
0 Add four rect primitives between the rounded corners*
20,1,$1+$1,$2,$3,$4,$5,0*
20,1,$1+$1,$4,$5,$6,$7,0*
20,1,$1+$1,$6,$7,$8,$9,0*
20,1,$1+$1,$8,$9,$2,$3,0*%
G04 Aperture macros list end*
%ADD10C,1.500000*%
%ADD11R,1.500000X1.500000*%
%ADD12R,1.200000X0.600000*%
%ADD13RoundRect,0.250000X-0.450000X0.350000X-0.450000X-0.350000X0.450000X-0.350000X0.450000X0.350000X0*%
%ADD14RoundRect,0.250000X0.450000X-0.350000X0.450000X0.350000X-0.450000X0.350000X-0.450000X-0.350000X0*%
%ADD15C,5.300000*%
%ADD16RoundRect,0.250000X-0.337500X-0.475000X0.337500X-0.475000X0.337500X0.475000X-0.337500X0.475000X0*%
%ADD17R,2.900000X5.400000*%
%ADD18RoundRect,0.250000X-0.550000X0.550000X-0.550000X-0.550000X0.550000X-0.550000X0.550000X0.550000X0*%
%ADD19C,1.600000*%
%ADD20RoundRect,0.250001X1.149999X1.149999X-1.149999X1.149999X-1.149999X-1.149999X1.149999X-1.149999X0*%
%ADD21C,2.800000*%
%ADD22RoundRect,0.250000X0.337500X0.475000X-0.337500X0.475000X-0.337500X-0.475000X0.337500X-0.475000X0*%
%ADD23R,1.570000X2.820000*%
%ADD24RoundRect,0.243750X0.456250X-0.243750X0.456250X0.243750X-0.456250X0.243750X-0.456250X-0.243750X0*%
%ADD25R,2.000000X1.905000*%
%ADD26O,2.000000X1.905000*%
%ADD27RoundRect,0.250000X-0.350000X-0.450000X0.350000X-0.450000X0.350000X0.450000X-0.350000X0.450000X0*%
%ADD28RoundRect,0.250001X0.949999X0.949999X-0.949999X0.949999X-0.949999X-0.949999X0.949999X-0.949999X0*%
%ADD29C,2.400000*%
%ADD30RoundRect,0.250001X1.149999X-1.149999X1.149999X1.149999X-1.149999X1.149999X-1.149999X-1.149999X0*%
%ADD31RoundRect,0.243750X-0.456250X0.243750X-0.456250X-0.243750X0.456250X-0.243750X0.456250X0.243750X0*%
%ADD32RoundRect,0.250000X0.650000X-1.000000X0.650000X1.000000X-0.650000X1.000000X-0.650000X-1.000000X0*%
%ADD33RoundRect,0.250000X0.350000X0.450000X-0.350000X0.450000X-0.350000X-0.450000X0.350000X-0.450000X0*%
%ADD34R,1.528000X0.650000*%
%ADD35RoundRect,0.250000X1.350000X-1.350000X1.350000X1.350000X-1.350000X1.350000X-1.350000X-1.350000X0*%
%ADD36C,3.200000*%
%ADD37RoundRect,0.250000X0.550000X0.550000X-0.550000X0.550000X-0.550000X-0.550000X0.550000X-0.550000X0*%
%ADD38RoundRect,0.093750X-0.093750X-0.106250X0.093750X-0.106250X0.093750X0.106250X-0.093750X0.106250X0*%
%ADD39R,1.000000X1.600000*%
%ADD40R,1.500000X1.050000*%
%ADD41O,1.500000X1.050000*%
%ADD42RoundRect,0.250000X-0.650000X1.000000X-0.650000X-1.000000X0.650000X-1.000000X0.650000X1.000000X0*%
%ADD43R,2.000000X2.000000*%
%ADD44C,2.000000*%
%ADD45RoundRect,0.250000X-0.300000X2.050000X-0.300000X-2.050000X0.300000X-2.050000X0.300000X2.050000X0*%
%ADD46RoundRect,0.250002X-5.149998X4.449998X-5.149998X-4.449998X5.149998X-4.449998X5.149998X4.449998X0*%
G04 APERTURE END LIST*
D10*
%TO.C,U1*%
X125800000Y-37640000D03*
X125800000Y-40180000D03*
X125800000Y-42720000D03*
X125800000Y-45260000D03*
X125800000Y-47800000D03*
X125800000Y-50340000D03*
X125800000Y-52880000D03*
X125800000Y-55420000D03*
X125800000Y-57960000D03*
X125800000Y-60500000D03*
X125800000Y-63040000D03*
X125800000Y-65580000D03*
X125800000Y-68120000D03*
D11*
X125800000Y-70660000D03*
D10*
X125800000Y-73200000D03*
X125800000Y-75740000D03*
X125800000Y-78280000D03*
X125800000Y-80820000D03*
X125800000Y-83360000D03*
X151200000Y-83360000D03*
X151200000Y-80820000D03*
X151200000Y-78280000D03*
X151200000Y-75740000D03*
X151200000Y-73200000D03*
X151200000Y-70660000D03*
X151200000Y-68120000D03*
X151200000Y-65580000D03*
X151200000Y-63040000D03*
X151200000Y-60500000D03*
X151200000Y-57960000D03*
X151200000Y-55420000D03*
D11*
X151200000Y-52880000D03*
D10*
X151200000Y-50340000D03*
X151200000Y-47800000D03*
X151200000Y-45260000D03*
X151200000Y-42720000D03*
X151200000Y-40180000D03*
D11*
X151200000Y-37640000D03*
%TD*%
D12*
%TO.C,U5*%
X173250000Y-98000000D03*
X173250000Y-98950000D03*
X173250000Y-99900000D03*
X175750000Y-99900000D03*
X175750000Y-98950000D03*
X175750000Y-98000000D03*
%TD*%
D10*
%TO.C,TP19*%
X165000000Y-117500000D03*
%TD*%
D13*
%TO.C,R15*%
X171000000Y-55000000D03*
X171000000Y-57000000D03*
%TD*%
D10*
%TO.C,TP11*%
X165000000Y-139000000D03*
%TD*%
D13*
%TO.C,R1*%
X153500000Y-126000000D03*
X153500000Y-128000000D03*
%TD*%
D14*
%TO.C,R23*%
X182500000Y-96000000D03*
X182500000Y-94000000D03*
%TD*%
D15*
%TO.C,H3*%
X58000000Y-152000000D03*
%TD*%
D16*
%TO.C,C6*%
X175962500Y-96000000D03*
X178037500Y-96000000D03*
%TD*%
D12*
%TO.C,U4*%
X175750000Y-107450000D03*
X175750000Y-106500000D03*
X175750000Y-105550000D03*
X173250000Y-105550000D03*
X173250000Y-106500000D03*
X173250000Y-107450000D03*
%TD*%
D14*
%TO.C,R19*%
X156000000Y-124000000D03*
X156000000Y-122000000D03*
%TD*%
D15*
%TO.C,H2*%
X188500000Y-29500000D03*
%TD*%
D10*
%TO.C,TP16*%
X148500000Y-136000000D03*
%TD*%
D15*
%TO.C,H1*%
X58000000Y-29500000D03*
%TD*%
D17*
%TO.C,L1*%
X76310000Y-52850000D03*
X66610000Y-52850000D03*
%TD*%
D18*
%TO.C,D9*%
X174000000Y-49690000D03*
D19*
X174000000Y-57310000D03*
%TD*%
D20*
%TO.C,J1*%
X111210000Y-26500000D03*
D21*
X106210000Y-26500000D03*
%TD*%
D13*
%TO.C,R5*%
X171000000Y-42500000D03*
X171000000Y-44500000D03*
%TD*%
%TO.C,R20*%
X182500000Y-109500000D03*
X182500000Y-111500000D03*
%TD*%
D10*
%TO.C,TP21*%
X173000000Y-113000000D03*
%TD*%
%TO.C,TP23*%
X162500000Y-108500000D03*
%TD*%
%TO.C,TP15*%
X148500000Y-125000000D03*
%TD*%
D13*
%TO.C,R8*%
X171000000Y-67500000D03*
X171000000Y-69500000D03*
%TD*%
D22*
%TO.C,C9*%
X121037500Y-88000000D03*
X118962500Y-88000000D03*
%TD*%
D16*
%TO.C,C7*%
X175962500Y-109500000D03*
X178037500Y-109500000D03*
%TD*%
D23*
%TO.C,F2*%
X106420000Y-66320000D03*
X96500000Y-66320000D03*
X96500000Y-72380000D03*
X106420000Y-72380000D03*
%TD*%
D10*
%TO.C,TP5*%
X161500000Y-71500000D03*
%TD*%
D13*
%TO.C,R18*%
X156000000Y-136500000D03*
X156000000Y-138500000D03*
%TD*%
D18*
%TO.C,D19*%
X112000000Y-88190000D03*
D19*
X112000000Y-95810000D03*
%TD*%
D13*
%TO.C,R3*%
X162500000Y-134500000D03*
X162500000Y-136500000D03*
%TD*%
D24*
%TO.C,D5*%
X163500000Y-81937500D03*
X163500000Y-80062500D03*
%TD*%
D10*
%TO.C,TP3*%
X161500000Y-40000000D03*
%TD*%
%TO.C,TP12*%
X176000000Y-124000000D03*
%TD*%
D25*
%TO.C,Q1*%
X178540000Y-42500000D03*
D26*
X178540000Y-45040000D03*
X178540000Y-47580000D03*
%TD*%
D27*
%TO.C,R7*%
X166000000Y-67500000D03*
X168000000Y-67500000D03*
%TD*%
D10*
%TO.C,TP7*%
X161500000Y-46500000D03*
%TD*%
D28*
%TO.C,C1*%
X66460000Y-66350000D03*
D29*
X61460000Y-66350000D03*
%TD*%
D25*
%TO.C,Q4*%
X178500000Y-55000000D03*
D26*
X178500000Y-57540000D03*
X178500000Y-60080000D03*
%TD*%
D10*
%TO.C,TP8*%
X161500000Y-84000000D03*
%TD*%
D30*
%TO.C,J4*%
X190467500Y-110250000D03*
D21*
X190467500Y-105250000D03*
X190467500Y-100250000D03*
X190467500Y-95250000D03*
%TD*%
D24*
%TO.C,D10*%
X156000000Y-134500000D03*
X156000000Y-132625000D03*
%TD*%
D31*
%TO.C,D11*%
X156000000Y-126062500D03*
X156000000Y-127937500D03*
%TD*%
D10*
%TO.C,TP9*%
X161500000Y-59000000D03*
%TD*%
D32*
%TO.C,D17*%
X182500000Y-137000000D03*
X182500000Y-133000000D03*
%TD*%
D10*
%TO.C,TP22*%
X162500000Y-97000000D03*
%TD*%
D13*
%TO.C,R21*%
X167000000Y-109500000D03*
X167000000Y-111500000D03*
%TD*%
D31*
%TO.C,D15*%
X182500000Y-98125000D03*
X182500000Y-100000000D03*
%TD*%
D24*
%TO.C,D13*%
X167000000Y-107437500D03*
X167000000Y-105562500D03*
%TD*%
D27*
%TO.C,R12*%
X166000000Y-45000000D03*
X168000000Y-45000000D03*
%TD*%
D13*
%TO.C,R11*%
X171000000Y-80000000D03*
X171000000Y-82000000D03*
%TD*%
D10*
%TO.C,TP6*%
X161500000Y-77500000D03*
%TD*%
%TO.C,TP13*%
X176000000Y-137000000D03*
%TD*%
%TO.C,TP14*%
X73960000Y-63850000D03*
%TD*%
D18*
%TO.C,D4*%
X174000000Y-62500000D03*
D19*
X174000000Y-70120000D03*
%TD*%
D10*
%TO.C,TP2*%
X87460000Y-77850000D03*
%TD*%
%TO.C,TP1*%
X161500000Y-52500000D03*
%TD*%
D24*
%TO.C,D8*%
X163500000Y-57000000D03*
X163500000Y-55125000D03*
%TD*%
D10*
%TO.C,TP18*%
X159000000Y-136000000D03*
%TD*%
D33*
%TO.C,R17*%
X170500000Y-133000000D03*
X168500000Y-133000000D03*
%TD*%
D24*
%TO.C,D6*%
X163500000Y-44437500D03*
X163500000Y-42562500D03*
%TD*%
D34*
%TO.C,U3*%
X159789000Y-128595000D03*
X159789000Y-129865000D03*
X159789000Y-131135000D03*
X159789000Y-132405000D03*
X165211000Y-132405000D03*
X165211000Y-131135000D03*
X165211000Y-129865000D03*
X165211000Y-128595000D03*
%TD*%
D24*
%TO.C,D3*%
X163500000Y-69500000D03*
X163500000Y-67625000D03*
%TD*%
D31*
%TO.C,D14*%
X167000000Y-98062500D03*
X167000000Y-99937500D03*
%TD*%
D25*
%TO.C,Q3*%
X178500000Y-80000000D03*
D26*
X178500000Y-82540000D03*
X178500000Y-85080000D03*
%TD*%
D15*
%TO.C,H4*%
X187000000Y-152500000D03*
%TD*%
D10*
%TO.C,TP4*%
X161500000Y-64500000D03*
%TD*%
D14*
%TO.C,R22*%
X167000000Y-96000000D03*
X167000000Y-94000000D03*
%TD*%
D27*
%TO.C,R14*%
X166000000Y-55000000D03*
X168000000Y-55000000D03*
%TD*%
%TO.C,R6*%
X166000000Y-70000000D03*
X168000000Y-70000000D03*
%TD*%
D22*
%TO.C,C2*%
X165037500Y-126500000D03*
X162962500Y-126500000D03*
%TD*%
D35*
%TO.C,D1*%
X86460000Y-52850000D03*
D36*
X86460000Y-37610000D03*
%TD*%
D37*
%TO.C,C3*%
X96460000Y-57850000D03*
D19*
X93960000Y-57850000D03*
%TD*%
D27*
%TO.C,R9*%
X166000000Y-82500000D03*
X168000000Y-82500000D03*
%TD*%
D13*
%TO.C,R24*%
X178000000Y-129500000D03*
X178000000Y-131500000D03*
%TD*%
D18*
%TO.C,D2*%
X174000000Y-37380000D03*
D19*
X174000000Y-45000000D03*
%TD*%
D10*
%TO.C,TP20*%
X176000000Y-91500000D03*
%TD*%
D22*
%TO.C,C8*%
X173037500Y-109500000D03*
X170962500Y-109500000D03*
%TD*%
D30*
%TO.C,J5*%
X190500000Y-138000000D03*
D21*
X190500000Y-133000000D03*
X190500000Y-128000000D03*
X190500000Y-123000000D03*
%TD*%
D18*
%TO.C,D7*%
X174000000Y-75000000D03*
D19*
X174000000Y-82620000D03*
%TD*%
D38*
%TO.C,U6*%
X93072500Y-76200000D03*
X93072500Y-76850000D03*
X93072500Y-77500000D03*
X94847500Y-77500000D03*
X94847500Y-76850000D03*
X94847500Y-76200000D03*
D39*
X93960000Y-76850000D03*
%TD*%
D27*
%TO.C,R10*%
X166000000Y-80000000D03*
X168000000Y-80000000D03*
%TD*%
D33*
%TO.C,R25*%
X123500000Y-94000000D03*
X121500000Y-94000000D03*
%TD*%
D30*
%TO.C,J3*%
X190500000Y-83000000D03*
D21*
X190500000Y-78000000D03*
X190500000Y-73000000D03*
X190500000Y-68000000D03*
X190500000Y-63000000D03*
X190500000Y-58000000D03*
X190500000Y-53000000D03*
X190500000Y-48000000D03*
X190500000Y-43000000D03*
%TD*%
D37*
%TO.C,C10*%
X121000000Y-83500000D03*
D19*
X119000000Y-83500000D03*
%TD*%
D22*
%TO.C,C5*%
X173075000Y-96000000D03*
X171000000Y-96000000D03*
%TD*%
D10*
%TO.C,TP25*%
X179000000Y-101500000D03*
%TD*%
%TO.C,TP24*%
X179000000Y-104000000D03*
%TD*%
D40*
%TO.C,Q5*%
X117000000Y-95270000D03*
D41*
X117000000Y-94000000D03*
X117000000Y-92730000D03*
%TD*%
D25*
%TO.C,Q2*%
X178500000Y-67500000D03*
D26*
X178500000Y-70040000D03*
X178500000Y-72580000D03*
%TD*%
D24*
%TO.C,D12*%
X182500000Y-107437500D03*
X182500000Y-105562500D03*
%TD*%
D42*
%TO.C,D18*%
X182500000Y-124000000D03*
X182500000Y-128000000D03*
%TD*%
D10*
%TO.C,TP26*%
X98460000Y-76850000D03*
%TD*%
D33*
%TO.C,R16*%
X170500000Y-128000000D03*
X168500000Y-128000000D03*
%TD*%
D27*
%TO.C,R4*%
X166000000Y-42500000D03*
X168000000Y-42500000D03*
%TD*%
D37*
%TO.C,C4*%
X165000000Y-122500000D03*
D19*
X163000000Y-122500000D03*
%TD*%
D43*
%TO.C,BZ1*%
X100500000Y-88000000D03*
D44*
X100500000Y-95600000D03*
%TD*%
D45*
%TO.C,U2*%
X87960000Y-61350000D03*
X86260000Y-61350000D03*
X84560000Y-61350000D03*
D46*
X84560000Y-70500000D03*
D45*
X82860000Y-61350000D03*
X81160000Y-61350000D03*
%TD*%
D27*
%TO.C,R13*%
X166000000Y-57500000D03*
X168000000Y-57500000D03*
%TD*%
D35*
%TO.C,D16*%
X106460000Y-61090000D03*
D36*
X106460000Y-45850000D03*
%TD*%
M02*
