M48
; DRILL file {KiCad 9.0.7} date 2026-02-09T16:26:42+0200
; FORMAT={-:-/ absolute / metric / decimal}
; #@! TF.CreationDate,2026-02-09T16:26:42+02:00
; #@! TF.GenerationSoftware,Kicad,Pcbnew,9.0.7
; #@! TF.FileFunction,Plated,1,2,PTH
FMAT,2
METRIC
; #@! TA.AperFunction,Plated,PTH,ViaDrill
T1C0.300
; #@! TA.AperFunction,Plated,PTH,ComponentDrill
T2C0.750
; #@! TA.AperFunction,Plated,PTH,ComponentDrill
T3C0.800
; #@! TA.AperFunction,Plated,PTH,ComponentDrill
T4C1.000
; #@! TA.AperFunction,Plated,PTH,ComponentDrill
T5C1.100
; #@! TA.AperFunction,Plated,PTH,ComponentDrill
T6C1.200
; #@! TA.AperFunction,Plated,PTH,ComponentDrill
T7C1.300
; #@! TA.AperFunction,Plated,PTH,ComponentDrill
T8C1.600
%
G90
G05
T1
X129.0Y-88.0
X145.0Y-68.0
X152.0Y-118.5
X152.0Y-119.5
X152.0Y-120.5
X153.0Y-118.5
X153.0Y-119.5
X153.0Y-120.5
X153.5Y-123.0
X154.0Y-118.5
X154.0Y-119.5
X154.0Y-120.5
X162.5Y-130.5
X166.5Y-74.0
X166.5Y-75.0
X166.5Y-76.0
X166.5Y-87.0
X166.5Y-88.0
X166.5Y-89.0
X167.0Y-49.5
X167.0Y-50.5
X167.0Y-51.5
X167.5Y-74.0
X167.5Y-75.0
X167.5Y-76.0
X167.5Y-87.0
X167.5Y-88.0
X167.5Y-89.0
X168.0Y-49.5
X168.0Y-50.5
X168.0Y-51.5
X168.5Y-74.0
X168.5Y-75.0
X168.5Y-76.0
X168.5Y-87.0
X168.5Y-88.0
X168.5Y-89.0
X169.0Y-49.5
X169.0Y-50.5
X169.0Y-51.5
X173.0Y-93.0
X178.5Y-107.0
X184.5Y-93.0
X184.5Y-94.0
X184.5Y-95.0
X185.5Y-93.0
X185.5Y-94.0
X185.5Y-95.0
T2
X117.0Y-92.73
X117.0Y-94.0
X117.0Y-95.27
T3
X93.96Y-57.85
X96.46Y-57.85
X112.0Y-88.19
X112.0Y-95.81
X119.0Y-83.5
X121.0Y-83.5
X125.8Y-37.64
X125.8Y-40.18
X125.8Y-42.72
X125.8Y-45.26
X125.8Y-47.8
X125.8Y-50.34
X125.8Y-52.88
X125.8Y-55.42
X125.8Y-57.96
X125.8Y-60.5
X125.8Y-63.04
X125.8Y-65.58
X125.8Y-68.12
X125.8Y-70.66
X125.8Y-73.2
X125.8Y-75.74
X125.8Y-78.28
X125.8Y-80.82
X125.8Y-83.36
X151.2Y-37.64
X151.2Y-40.18
X151.2Y-42.72
X151.2Y-45.26
X151.2Y-47.8
X151.2Y-50.34
X151.2Y-52.88
X151.2Y-55.42
X151.2Y-57.96
X151.2Y-60.5
X151.2Y-63.04
X151.2Y-65.58
X151.2Y-68.12
X151.2Y-70.66
X151.2Y-73.2
X151.2Y-75.74
X151.2Y-78.28
X151.2Y-80.82
X151.2Y-83.36
X163.0Y-122.5
X165.0Y-122.5
X174.0Y-37.38
X174.0Y-45.0
X174.0Y-49.69
X174.0Y-57.31
X174.0Y-62.5
X174.0Y-70.12
X174.0Y-75.0
X174.0Y-82.62
T4
X100.5Y-88.0
X100.5Y-95.6
T5
X178.5Y-55.0
X178.5Y-57.54
X178.5Y-60.08
X178.5Y-67.5
X178.5Y-70.04
X178.5Y-72.58
X178.5Y-80.0
X178.5Y-82.54
X178.5Y-85.08
X178.54Y-42.5
X178.54Y-45.04
X178.54Y-47.58
T6
X61.46Y-66.35
X66.46Y-66.35
T7
X106.21Y-26.5
X111.21Y-26.5
X190.468Y-95.25
X190.468Y-100.25
X190.468Y-105.25
X190.468Y-110.25
X190.5Y-43.0
X190.5Y-48.0
X190.5Y-53.0
X190.5Y-58.0
X190.5Y-63.0
X190.5Y-68.0
X190.5Y-73.0
X190.5Y-78.0
X190.5Y-83.0
X190.5Y-123.0
X190.5Y-128.0
X190.5Y-133.0
X190.5Y-138.0
T8
X86.46Y-37.61
X86.46Y-52.85
X106.46Y-45.85
X106.46Y-61.09
M30
