M48
; DRILL file {KiCad 9.0.7} date 2026-04-14T23:12:29+0300
; FORMAT={-:-/ absolute / metric / decimal}
; #@! TF.CreationDate,2026-04-14T23:12:29+03:00
; #@! TF.GenerationSoftware,Kicad,Pcbnew,9.0.7
; #@! TF.FileFunction,Plated,1,4,PTH
FMAT,2
METRIC
; #@! TA.AperFunction,Plated,PTH,ComponentDrill
T1C0.200
; #@! TA.AperFunction,Plated,PTH,ViaDrill
T2C0.300
; #@! TA.AperFunction,Plated,PTH,ComponentDrill
T3C0.800
; #@! TA.AperFunction,Plated,PTH,ComponentDrill
T4C1.000
; #@! TA.AperFunction,Plated,PTH,ComponentDrill
T5C1.100
; #@! TA.AperFunction,Plated,PTH,ComponentDrill
T6C1.200
%
G90
G05
T1
X56.35Y-29.112
X56.35Y-30.637
X57.112Y-28.35
X57.112Y-29.875
X57.112Y-31.4
X57.875Y-29.112
X57.875Y-30.637
X58.637Y-28.35
X58.637Y-29.875
X58.637Y-31.4
X59.4Y-29.112
X59.4Y-30.637
T2
X42.8Y-36.6
X43.8Y-36.6
X48.2Y-31.6
X48.2Y-32.8
X48.275Y-36.6
X48.275Y-37.8
X52.2Y-54.6
X53.0Y-50.3
X54.6Y-47.775
X55.71Y-51.826
X58.0Y-56.7
X58.996Y-46.325
X60.8Y-47.3
X60.8Y-60.825
X63.6Y-56.9
X63.8Y-51.0
X63.8Y-52.0
X63.8Y-54.6
X69.2Y-25.0
X69.2Y-26.4
X69.2Y-27.6
X69.2Y-30.0
X69.6Y-44.8
X69.6Y-45.6
X74.0Y-33.4
X74.0Y-34.4
X74.2Y-22.4
X77.0Y-45.6
X77.4Y-39.4
X77.6Y-31.2
X77.6Y-32.0
X77.6Y-43.6
X77.8Y-45.6
X78.0Y-24.6
X78.4Y-31.2
X78.4Y-32.0
X81.2Y-29.6
X81.2Y-30.4
X82.0Y-24.2
X82.0Y-29.6
X82.0Y-30.4
X83.6Y-50.0
X83.6Y-50.8
X83.6Y-51.6
X83.6Y-59.6
X83.6Y-60.4
X83.6Y-61.2
X83.6Y-69.2
X83.6Y-70.0
X83.6Y-70.8
X84.6Y-51.6
X84.6Y-61.2
X84.6Y-70.8
T3
X22.0Y-41.053
X22.0Y-43.553
X27.11Y-49.4
X29.65Y-49.4
X44.0Y-22.8
X44.0Y-24.8
T4
X18.2Y-49.39
X18.2Y-51.93
X18.2Y-54.47
X18.2Y-57.01
T5
X17.75Y-61.55
X17.75Y-68.05
X22.25Y-61.55
X22.25Y-68.05
T6
X23.732Y-31.305
X23.732Y-34.805
X28.0Y-19.124
X28.0Y-24.124
X54.905Y-68.468
X58.405Y-68.468
X64.505Y-68.468
X68.005Y-68.468
X74.105Y-68.468
X77.605Y-68.468
X96.468Y-17.895
X96.468Y-21.395
X96.468Y-24.895
X96.468Y-28.395
X96.468Y-34.5
X96.468Y-38.0
X96.468Y-41.5
X96.468Y-45.0
X96.468Y-51.095
X96.468Y-54.595
X96.468Y-60.695
X96.468Y-64.195
X96.468Y-70.295
X96.468Y-73.795
M30
