%TF.GenerationSoftware,KiCad,Pcbnew,9.0.7*%
%TF.CreationDate,2026-02-09T16:26:46+02:00*%
%TF.ProjectId,Furnace_Controller,4675726e-6163-4655-9f43-6f6e74726f6c,rev?*%
%TF.SameCoordinates,Original*%
%TF.FileFunction,Soldermask,Bot*%
%TF.FilePolarity,Negative*%
%FSLAX46Y46*%
G04 Gerber Fmt 4.6, Leading zero omitted, Abs format (unit mm)*
G04 Created by KiCad (PCBNEW 9.0.7) date 2026-02-09 16:26:46*
%MOMM*%
%LPD*%
G01*
G04 APERTURE LIST*
G04 Aperture macros list*
%AMRoundRect*
0 Rectangle with rounded corners*
0 $1 Rounding radius*
0 $2 $3 $4 $5 $6 $7 $8 $9 X,Y pos of 4 corners*
0 Add a 4 corners polygon primitive as box body*
4,1,4,$2,$3,$4,$5,$6,$7,$8,$9,$2,$3,0*
0 Add four circle primitives for the rounded corners*
1,1,$1+$1,$2,$3*
1,1,$1+$1,$4,$5*
1,1,$1+$1,$6,$7*
1,1,$1+$1,$8,$9*
0 Add four rect primitives between the rounded corners*
20,1,$1+$1,$2,$3,$4,$5,0*
20,1,$1+$1,$4,$5,$6,$7,0*
20,1,$1+$1,$6,$7,$8,$9,0*
20,1,$1+$1,$8,$9,$2,$3,0*%
G04 Aperture macros list end*
%ADD10C,1.500000*%
%ADD11R,1.500000X1.500000*%
%ADD12C,5.300000*%
%ADD13RoundRect,0.250000X-0.550000X0.550000X-0.550000X-0.550000X0.550000X-0.550000X0.550000X0.550000X0*%
%ADD14C,1.600000*%
%ADD15RoundRect,0.250001X1.149999X1.149999X-1.149999X1.149999X-1.149999X-1.149999X1.149999X-1.149999X0*%
%ADD16C,2.800000*%
%ADD17R,2.000000X1.905000*%
%ADD18O,2.000000X1.905000*%
%ADD19RoundRect,0.250001X0.949999X0.949999X-0.949999X0.949999X-0.949999X-0.949999X0.949999X-0.949999X0*%
%ADD20C,2.400000*%
%ADD21RoundRect,0.250001X1.149999X-1.149999X1.149999X1.149999X-1.149999X1.149999X-1.149999X-1.149999X0*%
%ADD22RoundRect,0.250000X1.350000X-1.350000X1.350000X1.350000X-1.350000X1.350000X-1.350000X-1.350000X0*%
%ADD23C,3.200000*%
%ADD24RoundRect,0.250000X0.550000X0.550000X-0.550000X0.550000X-0.550000X-0.550000X0.550000X-0.550000X0*%
%ADD25R,1.500000X1.050000*%
%ADD26O,1.500000X1.050000*%
%ADD27R,2.000000X2.000000*%
%ADD28C,2.000000*%
G04 APERTURE END LIST*
D10*
%TO.C,U1*%
X125800000Y-37640000D03*
X125800000Y-40180000D03*
X125800000Y-42720000D03*
X125800000Y-45260000D03*
X125800000Y-47800000D03*
X125800000Y-50340000D03*
X125800000Y-52880000D03*
X125800000Y-55420000D03*
X125800000Y-57960000D03*
X125800000Y-60500000D03*
X125800000Y-63040000D03*
X125800000Y-65580000D03*
X125800000Y-68120000D03*
D11*
X125800000Y-70660000D03*
D10*
X125800000Y-73200000D03*
X125800000Y-75740000D03*
X125800000Y-78280000D03*
X125800000Y-80820000D03*
X125800000Y-83360000D03*
X151200000Y-83360000D03*
X151200000Y-80820000D03*
X151200000Y-78280000D03*
X151200000Y-75740000D03*
X151200000Y-73200000D03*
X151200000Y-70660000D03*
X151200000Y-68120000D03*
X151200000Y-65580000D03*
X151200000Y-63040000D03*
X151200000Y-60500000D03*
X151200000Y-57960000D03*
X151200000Y-55420000D03*
D11*
X151200000Y-52880000D03*
D10*
X151200000Y-50340000D03*
X151200000Y-47800000D03*
X151200000Y-45260000D03*
X151200000Y-42720000D03*
X151200000Y-40180000D03*
D11*
X151200000Y-37640000D03*
%TD*%
D12*
%TO.C,H3*%
X58000000Y-152000000D03*
%TD*%
%TO.C,H2*%
X188500000Y-29500000D03*
%TD*%
%TO.C,H1*%
X58000000Y-29500000D03*
%TD*%
D13*
%TO.C,D9*%
X174000000Y-49690000D03*
D14*
X174000000Y-57310000D03*
%TD*%
D15*
%TO.C,J1*%
X111210000Y-26500000D03*
D16*
X106210000Y-26500000D03*
%TD*%
D13*
%TO.C,D19*%
X112000000Y-88190000D03*
D14*
X112000000Y-95810000D03*
%TD*%
D17*
%TO.C,Q1*%
X178540000Y-42500000D03*
D18*
X178540000Y-45040000D03*
X178540000Y-47580000D03*
%TD*%
D19*
%TO.C,C1*%
X66460000Y-66350000D03*
D20*
X61460000Y-66350000D03*
%TD*%
D17*
%TO.C,Q4*%
X178500000Y-55000000D03*
D18*
X178500000Y-57540000D03*
X178500000Y-60080000D03*
%TD*%
D21*
%TO.C,J4*%
X190467500Y-110250000D03*
D16*
X190467500Y-105250000D03*
X190467500Y-100250000D03*
X190467500Y-95250000D03*
%TD*%
D13*
%TO.C,D4*%
X174000000Y-62500000D03*
D14*
X174000000Y-70120000D03*
%TD*%
D17*
%TO.C,Q3*%
X178500000Y-80000000D03*
D18*
X178500000Y-82540000D03*
X178500000Y-85080000D03*
%TD*%
D12*
%TO.C,H4*%
X187000000Y-152500000D03*
%TD*%
D22*
%TO.C,D1*%
X86460000Y-52850000D03*
D23*
X86460000Y-37610000D03*
%TD*%
D24*
%TO.C,C3*%
X96460000Y-57850000D03*
D14*
X93960000Y-57850000D03*
%TD*%
D13*
%TO.C,D2*%
X174000000Y-37380000D03*
D14*
X174000000Y-45000000D03*
%TD*%
D21*
%TO.C,J5*%
X190500000Y-138000000D03*
D16*
X190500000Y-133000000D03*
X190500000Y-128000000D03*
X190500000Y-123000000D03*
%TD*%
D13*
%TO.C,D7*%
X174000000Y-75000000D03*
D14*
X174000000Y-82620000D03*
%TD*%
D21*
%TO.C,J3*%
X190500000Y-83000000D03*
D16*
X190500000Y-78000000D03*
X190500000Y-73000000D03*
X190500000Y-68000000D03*
X190500000Y-63000000D03*
X190500000Y-58000000D03*
X190500000Y-53000000D03*
X190500000Y-48000000D03*
X190500000Y-43000000D03*
%TD*%
D24*
%TO.C,C10*%
X121000000Y-83500000D03*
D14*
X119000000Y-83500000D03*
%TD*%
D25*
%TO.C,Q5*%
X117000000Y-95270000D03*
D26*
X117000000Y-94000000D03*
X117000000Y-92730000D03*
%TD*%
D17*
%TO.C,Q2*%
X178500000Y-67500000D03*
D18*
X178500000Y-70040000D03*
X178500000Y-72580000D03*
%TD*%
D24*
%TO.C,C4*%
X165000000Y-122500000D03*
D14*
X163000000Y-122500000D03*
%TD*%
D27*
%TO.C,BZ1*%
X100500000Y-88000000D03*
D28*
X100500000Y-95600000D03*
%TD*%
D22*
%TO.C,D16*%
X106460000Y-61090000D03*
D23*
X106460000Y-45850000D03*
%TD*%
M02*
