%TF.GenerationSoftware,KiCad,Pcbnew,9.0.7*%
%TF.CreationDate,2026-02-09T16:26:46+02:00*%
%TF.ProjectId,Furnace_Controller,4675726e-6163-4655-9f43-6f6e74726f6c,rev?*%
%TF.SameCoordinates,Original*%
%TF.FileFunction,Paste,Top*%
%TF.FilePolarity,Positive*%
%FSLAX46Y46*%
G04 Gerber Fmt 4.6, Leading zero omitted, Abs format (unit mm)*
G04 Created by KiCad (PCBNEW 9.0.7) date 2026-02-09 16:26:46*
%MOMM*%
%LPD*%
G01*
G04 APERTURE LIST*
G04 Aperture macros list*
%AMRoundRect*
0 Rectangle with rounded corners*
0 $1 Rounding radius*
0 $2 $3 $4 $5 $6 $7 $8 $9 X,Y pos of 4 corners*
0 Add a 4 corners polygon primitive as box body*
4,1,4,$2,$3,$4,$5,$6,$7,$8,$9,$2,$3,0*
0 Add four circle primitives for the rounded corners*
1,1,$1+$1,$2,$3*
1,1,$1+$1,$4,$5*
1,1,$1+$1,$6,$7*
1,1,$1+$1,$8,$9*
0 Add four rect primitives between the rounded corners*
20,1,$1+$1,$2,$3,$4,$5,0*
20,1,$1+$1,$4,$5,$6,$7,0*
20,1,$1+$1,$6,$7,$8,$9,0*
20,1,$1+$1,$8,$9,$2,$3,0*%
G04 Aperture macros list end*
%ADD10R,1.200000X0.600000*%
%ADD11RoundRect,0.250000X-0.450000X0.350000X-0.450000X-0.350000X0.450000X-0.350000X0.450000X0.350000X0*%
%ADD12RoundRect,0.250000X0.450000X-0.350000X0.450000X0.350000X-0.450000X0.350000X-0.450000X-0.350000X0*%
%ADD13RoundRect,0.250000X-0.337500X-0.475000X0.337500X-0.475000X0.337500X0.475000X-0.337500X0.475000X0*%
%ADD14R,2.900000X5.400000*%
%ADD15RoundRect,0.250000X0.337500X0.475000X-0.337500X0.475000X-0.337500X-0.475000X0.337500X-0.475000X0*%
%ADD16R,1.570000X2.820000*%
%ADD17RoundRect,0.243750X0.456250X-0.243750X0.456250X0.243750X-0.456250X0.243750X-0.456250X-0.243750X0*%
%ADD18RoundRect,0.250000X-0.350000X-0.450000X0.350000X-0.450000X0.350000X0.450000X-0.350000X0.450000X0*%
%ADD19RoundRect,0.243750X-0.456250X0.243750X-0.456250X-0.243750X0.456250X-0.243750X0.456250X0.243750X0*%
%ADD20RoundRect,0.250000X0.650000X-1.000000X0.650000X1.000000X-0.650000X1.000000X-0.650000X-1.000000X0*%
%ADD21RoundRect,0.250000X0.350000X0.450000X-0.350000X0.450000X-0.350000X-0.450000X0.350000X-0.450000X0*%
%ADD22R,1.528000X0.650000*%
%ADD23RoundRect,0.160000X-0.245000X-0.160000X0.245000X-0.160000X0.245000X0.160000X-0.245000X0.160000X0*%
%ADD24RoundRect,0.093750X-0.093750X-0.106250X0.093750X-0.106250X0.093750X0.106250X-0.093750X0.106250X0*%
%ADD25RoundRect,0.250000X-0.650000X1.000000X-0.650000X-1.000000X0.650000X-1.000000X0.650000X1.000000X0*%
%ADD26RoundRect,0.250000X-2.375000X2.025000X-2.375000X-2.025000X2.375000X-2.025000X2.375000X2.025000X0*%
%ADD27RoundRect,0.250000X-0.300000X2.050000X-0.300000X-2.050000X0.300000X-2.050000X0.300000X2.050000X0*%
G04 APERTURE END LIST*
D10*
%TO.C,U5*%
X173250000Y-98000000D03*
X173250000Y-98950000D03*
X173250000Y-99900000D03*
X175750000Y-99900000D03*
X175750000Y-98950000D03*
X175750000Y-98000000D03*
%TD*%
D11*
%TO.C,R15*%
X171000000Y-55000000D03*
X171000000Y-57000000D03*
%TD*%
%TO.C,R1*%
X153500000Y-126000000D03*
X153500000Y-128000000D03*
%TD*%
D12*
%TO.C,R23*%
X182500000Y-96000000D03*
X182500000Y-94000000D03*
%TD*%
D13*
%TO.C,C6*%
X175962500Y-96000000D03*
X178037500Y-96000000D03*
%TD*%
D10*
%TO.C,U4*%
X175750000Y-107450000D03*
X175750000Y-106500000D03*
X175750000Y-105550000D03*
X173250000Y-105550000D03*
X173250000Y-106500000D03*
X173250000Y-107450000D03*
%TD*%
D12*
%TO.C,R19*%
X156000000Y-124000000D03*
X156000000Y-122000000D03*
%TD*%
D14*
%TO.C,L1*%
X76310000Y-52850000D03*
X66610000Y-52850000D03*
%TD*%
D11*
%TO.C,R5*%
X171000000Y-42500000D03*
X171000000Y-44500000D03*
%TD*%
%TO.C,R20*%
X182500000Y-109500000D03*
X182500000Y-111500000D03*
%TD*%
%TO.C,R8*%
X171000000Y-67500000D03*
X171000000Y-69500000D03*
%TD*%
D15*
%TO.C,C9*%
X121037500Y-88000000D03*
X118962500Y-88000000D03*
%TD*%
D13*
%TO.C,C7*%
X175962500Y-109500000D03*
X178037500Y-109500000D03*
%TD*%
D16*
%TO.C,F2*%
X106420000Y-66320000D03*
X96500000Y-66320000D03*
X96500000Y-72380000D03*
X106420000Y-72380000D03*
%TD*%
D11*
%TO.C,R18*%
X156000000Y-136500000D03*
X156000000Y-138500000D03*
%TD*%
%TO.C,R3*%
X162500000Y-134500000D03*
X162500000Y-136500000D03*
%TD*%
D17*
%TO.C,D5*%
X163500000Y-81937500D03*
X163500000Y-80062500D03*
%TD*%
D18*
%TO.C,R7*%
X166000000Y-67500000D03*
X168000000Y-67500000D03*
%TD*%
D17*
%TO.C,D10*%
X156000000Y-134500000D03*
X156000000Y-132625000D03*
%TD*%
D19*
%TO.C,D11*%
X156000000Y-126062500D03*
X156000000Y-127937500D03*
%TD*%
D20*
%TO.C,D17*%
X182500000Y-137000000D03*
X182500000Y-133000000D03*
%TD*%
D11*
%TO.C,R21*%
X167000000Y-109500000D03*
X167000000Y-111500000D03*
%TD*%
D19*
%TO.C,D15*%
X182500000Y-98125000D03*
X182500000Y-100000000D03*
%TD*%
D17*
%TO.C,D13*%
X167000000Y-107437500D03*
X167000000Y-105562500D03*
%TD*%
D18*
%TO.C,R12*%
X166000000Y-45000000D03*
X168000000Y-45000000D03*
%TD*%
D11*
%TO.C,R11*%
X171000000Y-80000000D03*
X171000000Y-82000000D03*
%TD*%
D17*
%TO.C,D8*%
X163500000Y-57000000D03*
X163500000Y-55125000D03*
%TD*%
D21*
%TO.C,R17*%
X170500000Y-133000000D03*
X168500000Y-133000000D03*
%TD*%
D17*
%TO.C,D6*%
X163500000Y-44437500D03*
X163500000Y-42562500D03*
%TD*%
D22*
%TO.C,U3*%
X159789000Y-128595000D03*
X159789000Y-129865000D03*
X159789000Y-131135000D03*
X159789000Y-132405000D03*
X165211000Y-132405000D03*
X165211000Y-131135000D03*
X165211000Y-129865000D03*
X165211000Y-128595000D03*
%TD*%
D17*
%TO.C,D3*%
X163500000Y-69500000D03*
X163500000Y-67625000D03*
%TD*%
D19*
%TO.C,D14*%
X167000000Y-98062500D03*
X167000000Y-99937500D03*
%TD*%
D12*
%TO.C,R22*%
X167000000Y-96000000D03*
X167000000Y-94000000D03*
%TD*%
D18*
%TO.C,R14*%
X166000000Y-55000000D03*
X168000000Y-55000000D03*
%TD*%
%TO.C,R6*%
X166000000Y-70000000D03*
X168000000Y-70000000D03*
%TD*%
D15*
%TO.C,C2*%
X165037500Y-126500000D03*
X162962500Y-126500000D03*
%TD*%
D18*
%TO.C,R9*%
X166000000Y-82500000D03*
X168000000Y-82500000D03*
%TD*%
D11*
%TO.C,R24*%
X178000000Y-129500000D03*
X178000000Y-131500000D03*
%TD*%
D15*
%TO.C,C8*%
X173037500Y-109500000D03*
X170962500Y-109500000D03*
%TD*%
D23*
%TO.C,U6*%
X93960000Y-76450000D03*
X93960000Y-77250000D03*
D24*
X93072500Y-76200000D03*
X93072500Y-76850000D03*
X93072500Y-77500000D03*
X94847500Y-77500000D03*
X94847500Y-76850000D03*
X94847500Y-76200000D03*
%TD*%
D18*
%TO.C,R10*%
X166000000Y-80000000D03*
X168000000Y-80000000D03*
%TD*%
D21*
%TO.C,R25*%
X123500000Y-94000000D03*
X121500000Y-94000000D03*
%TD*%
D15*
%TO.C,C5*%
X173075000Y-96000000D03*
X171000000Y-96000000D03*
%TD*%
D17*
%TO.C,D12*%
X182500000Y-107437500D03*
X182500000Y-105562500D03*
%TD*%
D25*
%TO.C,D18*%
X182500000Y-124000000D03*
X182500000Y-128000000D03*
%TD*%
D21*
%TO.C,R16*%
X170500000Y-128000000D03*
X168500000Y-128000000D03*
%TD*%
D18*
%TO.C,R4*%
X166000000Y-42500000D03*
X168000000Y-42500000D03*
%TD*%
D26*
%TO.C,U2*%
X87335000Y-68075000D03*
X81785000Y-68075000D03*
X87335000Y-72925000D03*
X81785000Y-72925000D03*
D27*
X87960000Y-61350000D03*
X86260000Y-61350000D03*
X84560000Y-61350000D03*
X82860000Y-61350000D03*
X81160000Y-61350000D03*
%TD*%
D18*
%TO.C,R13*%
X166000000Y-57500000D03*
X168000000Y-57500000D03*
%TD*%
M02*
